<svg xmlns="http://www.w3.org/2000/svg" width="32" height="32" viewBox="0 0 32 32"><g fill="#212121" class="nc-icon-wrapper"><path d="M31.977,9.821c-.021-.116-.057-.227-.116-.327-.002-.003-.001-.006-.003-.009-.005-.009-.014-.013-.019-.021-.058-.09-.131-.168-.216-.237-.021-.017-.04-.034-.062-.049-.016-.011-.028-.025-.045-.035L16.515,.143c-.317-.189-.712-.189-1.029,0L.485,9.143c-.016,.01-.028,.024-.043,.034-.023,.016-.044,.034-.066,.052-.084,.068-.157,.145-.214,.235-.005,.008-.014,.013-.02,.021-.002,.003-.002,.006-.003,.009-.059,.1-.095,.211-.116,.327-.005,.029-.008,.057-.011,.086-.003,.031-.012,.061-.012,.093V26c0,2.206,1.794,4,4,4H28c2.206,0,4-1.794,4-4V10c0-.032-.009-.062-.012-.093-.003-.029-.006-.057-.011-.086ZM16,2.166l13.056,7.834-13.056,7.834L2.944,10,16,2.166Z" fill="#212121"></path></g></svg>