<svg xmlns="http://www.w3.org/2000/svg" width="32" height="32" viewBox="0 0 32 32"><g fill="#212121" class="nc-icon-wrapper"><path d="M6.5,32A3.5,3.5,0,1,1,10,28.5,3.5,3.5,0,0,1,6.5,32Z" fill="#212121" data-color="color-2"></path> <circle cx="19" cy="3.5" r="3.5" fill="#212121"></circle> <path d="M29.666,14.942l-8.9-5.888a1.465,1.465,0,0,0-.325-.154l-5.47-1.823a1.5,1.5,0,0,0-1.066.044l-10.4,4.73.984,2.3,7.94-3.188L8.577,22.525l2.682.9,1.3-3.364,1.8.6L11.551,30.684l2.372.791,6.4-19.192,8.013,4.775Z" fill="#212121"></path></g></svg>