<svg xmlns="http://www.w3.org/2000/svg" width="32" height="32" viewBox="0 0 32 32"><g fill="#212121" class="nc-icon-wrapper"><path data-color="color-2" fill="#212121" d="M30,32H2c-0.364,0-0.698-0.197-0.875-0.515s-0.166-0.707,0.026-1.015l5-8 c0.293-0.469,0.91-0.61,1.378-0.318c0.469,0.293,0.611,0.91,0.318,1.378L3.804,30h24.392l-4.044-6.47 c-0.292-0.468-0.15-1.085,0.318-1.378c0.468-0.292,1.085-0.15,1.378,0.318l5,8c0.192,0.308,0.203,0.697,0.026,1.015S30.364,32,30,32 z"></path> <path fill="#212121" d="M16,0.036c-5.407,0-11,3.944-11,10.545c0,6.219,9.855,16.666,10.275,17.107C15.464,27.888,15.726,28,16,28 s0.536-0.112,0.725-0.311C17.145,27.247,27,16.801,27,10.582C27,3.98,21.407,0.036,16,0.036z M16,15.036c-2.206,0-4-1.794-4-4 s1.794-4,4-4s4,1.794,4,4S18.206,15.036,16,15.036z"></path></g></svg>