<svg xmlns="http://www.w3.org/2000/svg" width="32" height="32" viewBox="0 0 32 32"><g fill="#212121" class="nc-icon-wrapper"><path d="M31.851,13.474A1,1,0,0,0,31,13H9a9,9,0,1,0,9,9,8.677,8.677,0,0,0-.059-1H28a1,1,0,0,0,.895-.553l3-6A1,1,0,0,0,31.851,13.474ZM9,25a3,3,0,1,1,3-3A3,3,0,0,1,9,25Z" fill="#212121"></path> <rect data-color="color-2" x="15" y="1" width="2" height="6" fill="#212121"></rect> <rect data-color="color-2" x="20.071" y="5.929" width="6" height="2" transform="translate(1.858 18.343) rotate(-45)" fill="#212121"></rect> <rect data-color="color-2" x="7.929" y="3.929" width="2" height="6" transform="translate(-2.284 8.343) rotate(-45)" fill="#212121"></rect></g></svg>