<?xml version="1.0" encoding="UTF-8"?>
<svg width="504px" height="101px" viewBox="0 0 504 101" version="1.1" xmlns="http://www.w3.org/2000/svg" xmlns:xlink="http://www.w3.org/1999/xlink">
    <title>monteball</title>
    <g id="Page-1" stroke="none" stroke-width="1" fill="none" fill-rule="evenodd">
        <g id="Montebolas" transform="translate(-59, -142)" fill="rgb(255 196 42)">
            <g id="monteball" transform="translate(59.4312, 142.6167)">
                <polygon id="Fill-1" points="466.1005 86.3399 477.7687 86.3399 474.2991 98.5272 451.5865 98.5272 451.5865 21.4104 466.1005 21.4104"></polygon>
                <path d="M366.0942,77.9046 L361.1432,77.9046 L359.094,98.5252 L345.9574,98.5252 L355.9983,21.4104 L374.6319,21.4104 L382.6857,98.5252 L367.5985,98.5252 L366.0942,77.9046 Z M362.3448,65.7199 L365.1885,65.7199 L363.9115,43.3293 L362.3448,65.7199 Z" id="Fill-2"></path>
                <path d="M316.8468,57.4005 C319.1842,57.9484 321.22,59.1514 322.6493,61.2944 C324.8662,64.6161 325.1676,70.3333 325.1676,74.1955 L325.1676,80.7911 C325.1676,85.3206 324.5542,91.2915 321.0602,94.5947 C317.7808,97.6975 313.0988,98.5252 308.7399,98.5252 L292.3118,98.5252 L292.3118,21.4104 L308.7399,21.4104 C312.8502,21.4104 316.8527,22.2475 320.2101,24.7176 C324.1624,27.6234 325.1676,32.8031 325.1676,37.4216 L325.1676,43.1328 C325.1676,46.2946 324.7758,49.6778 323.2613,52.5036 C321.9287,54.9876 319.4577,56.4744 316.8468,57.4005 Z M306.8237,33.5951 L306.8237,52.8818 L307.8754,52.8818 C310.3152,52.8818 310.6545,50.851 310.6545,48.79 L310.6545,37.6886 C310.6545,35.6582 310.2868,33.5951 307.8754,33.5951 L306.8237,33.5951 Z M306.8237,63.6166 L306.8237,86.3399 L307.8754,86.3399 C308.5271,86.3399 309.6436,86.2804 310.1519,85.8036 C310.6159,85.3642 310.6545,83.9648 310.6545,83.3811 L310.6545,66.5728 C310.6545,66.0186 310.6227,64.5202 310.1652,64.1129 C309.6615,63.6608 308.5081,63.6166 307.8754,63.6166 L306.8237,63.6166 Z" id="Fill-3"></path>
                <polygon id="Fill-4" points="259.6283 33.5951 259.6283 49.6177 270.6083 49.6177 270.6083 61.8061 259.6283 61.8061 259.6283 86.3399 271.1041 86.3399 267.6345 98.5252 245.1141 98.5252 245.1141 21.4104 267.6345 21.4104 271.1041 33.5951"></polygon>
                <polygon id="Fill-5" points="214.7204 33.5951 214.7204 98.5252 200.2051 98.5252 200.2051 33.5951 191.3859 33.5951 194.8569 21.4104 220.1026 21.4104 223.5727 33.5951"></polygon>
                <polygon id="Fill-6" points="158.7889 62.3336 158.7889 21.4104 170.405 21.4104 170.405 98.5252 153.5108 98.5252 145.3221 46.0276 145.3221 98.5252 133.7051 98.5252 133.7051 21.4104 153.1882 21.4104"></polygon>
                <path d="M77.4331,85.5082 L77.4331,34.3718 C77.4331,29.9251 78.6931,25.6 82.5613,23.0148 C85.9325,20.7627 89.8466,19.9032 93.8628,19.9032 C97.9174,19.9032 101.9199,20.7275 105.3144,23.0372 C109.1106,25.6198 110.2912,30.0223 110.2912,34.4067 L110.2912,85.4754 C110.2912,89.8577 109.0386,94.0658 105.3224,96.6816 C101.9228,99.0717 97.9877,100.0341 93.8628,100.0341 C89.7783,100.0341 85.9266,99.0321 82.5514,96.7014 C78.7725,94.091 77.4331,89.9663 77.4331,85.5082 Z M95.4983,33.6348 C95.1862,32.9196 94.6726,32.5157 93.8628,32.5157 C93.0855,32.5157 92.6419,32.8845 92.4324,33.6229 C92.1342,34.6791 91.9471,35.7733 91.9471,36.8731 L91.9471,83.0611 C91.9471,84.1042 92.1549,85.1037 92.4344,86.1032 C92.6552,86.8944 92.9883,87.4225 93.8628,87.4225 C94.7559,87.4225 95.2656,86.9593 95.4983,86.1072 C95.7605,85.144 95.7784,84.0566 95.7784,83.0611 L95.7784,36.8731 C95.7784,35.7857 95.6894,34.7023 95.4983,33.6348 L95.4983,33.6348 Z" id="Fill-7"></path>
                <polygon id="Fill-8" points="26.6748 67.9145 32.6398 21.4104 52.2555 21.4104 52.2555 98.5252 39.0557 98.5252 39.0557 50.5463 32.1712 98.5252 19.7135 98.5252 13.2012 51.8366 13.2012 98.5252 1.42108547e-14 98.5252 1.42108547e-14 21.4104 21.4832 21.4104"></polygon>
                <polygon id="Fill-9" points="417.9603 86.3399 429.6294 86.3399 426.1589 98.5252 403.4457 98.5252 403.4457 21.4104 417.9603 21.4104"></polygon>
                <path d="M491.6095,0 C493.5713,0 495.489,0.5029 497.3615,1.5117 C499.2301,2.5217 500.6934,3.9609 501.7354,5.8408 C502.7771,7.7142 503.3041,9.6716 503.3041,11.7105 C503.3041,13.7294 502.789,15.6665 501.7555,17.5238 C500.7302,19.3876 499.2828,20.8352 497.4304,21.8602 C495.574,22.894 493.6362,23.4048 491.6095,23.4048 C489.5787,23.4048 487.6373,22.894 485.7845,21.8602 C483.9281,20.8352 482.4811,19.3876 481.4473,17.5238 C480.4098,15.6665 479.899,13.7294 479.899,11.7105 C479.899,9.6716 480.422,7.7142 481.4716,5.8408 C482.5173,3.9609 483.9809,2.5217 485.8537,1.5117 C487.7223,0.5029 489.6436,0 491.6095,0 Z M491.6095,1.9378 C489.9597,1.9378 488.3627,2.363 486.8062,3.2066 C485.2497,4.0454 484.0333,5.2538 483.1537,6.814 C482.2741,8.3829 481.8367,10.012 481.8367,11.7105 C481.8367,13.3966 482.2704,15.0103 483.1336,16.5549 C483.997,18.1029 485.2009,19.3068 486.7534,20.1705 C488.306,21.034 489.9194,21.4674 491.6095,21.4674 C493.2918,21.4674 494.9132,21.034 496.4615,20.1705 C498.0143,19.3068 499.2137,18.1029 500.0731,16.5549 C500.9286,15.0103 501.3581,13.3966 501.3581,11.7105 C501.3581,10.012 500.9244,8.3829 500.053,6.814 C499.1774,5.2538 497.9616,4.0454 496.4009,3.2066 C494.8361,2.363 493.2391,1.9378 491.6095,1.9378 Z M486.4737,18.1763 L486.4737,5.5857 L490.799,5.5857 C492.2784,5.5857 493.3485,5.6994 494.0132,5.9301 C494.674,6.1654 495.197,6.5713 495.5941,7.1465 C495.9876,7.7304 496.1817,8.3466 496.1817,8.9952 C496.1817,9.9187 495.8535,10.7175 495.197,11.3984 C494.5402,12.0841 493.6685,12.4645 492.5826,12.5501 C493.0285,12.7324 493.3851,12.9552 493.6527,13.2149 C494.1592,13.7132 494.7792,14.5443 495.5131,15.7162 L497.0491,18.1763 L494.5685,18.1763 L493.45,16.1895 C492.5704,14.633 491.8691,13.6562 491.3257,13.2633 C490.9569,12.9714 490.4096,12.8299 489.6964,12.8299 L488.5047,12.8299 L488.5047,18.1763 L486.4737,18.1763 Z M488.5047,11.0903 L490.9731,11.0903 C492.1486,11.0903 492.9514,10.9123 493.3808,10.5633 C493.8106,10.215 494.0257,9.7487 494.0257,9.1656 C494.0257,8.7968 493.92,8.46 493.7133,8.1644 C493.5064,7.8721 493.2227,7.6536 492.8581,7.507 C492.4851,7.3613 491.8082,7.2924 490.8149,7.2924 L488.5047,7.2924 L488.5047,11.0903 Z" id="Fill-10"></path>
            </g>
        </g>
    </g>
</svg>